<svg xmlns="http://www.w3.org/2000/svg" width="55" height="55" viewBox="0 0 55 55">
  <g id="billTo" transform="translate(-1088 -228)">
    <circle id="Ellipse_19" data-name="Ellipse 19" cx="27.5" cy="27.5" r="27.5" transform="translate(1088 228)" fill="#cede00"/>
    <path id="Icon_awesome-hornbill" data-name="Icon awesome-hornbill" d="M4.414,21.33a2.177,2.177,0,1,1-1.847-1.868c-4.509-6.414,3-10.976,3-10.976-.338,2.477-.475,5.251-.475,5.251-3.877,2.39.054,3.69,2.293,4.2a8.087,8.087,0,0,0,7.584,5.3c.111,0,.217-.012.327-.016L15.3,24.3C9.582,24.382,6.156,22.624,4.414,21.33ZM10.635,2.453a2.164,2.164,0,0,0-.195-1.218,2.186,2.186,0,1,0-1.8,3.123c-1.3,1.723-3.1,5.16-3.02,10.945l1.258-.009c0-.052-.008-.1-.008-.154a8.089,8.089,0,0,1,5.063-7.5c.461-2.172,1.768-6.584,4.251-2.551,0,0,2.773.137,5.252.475,0,0-4.484-7.373-10.806-3.114Zm17.523,7.729a2.186,2.186,0,1,0-3.1-1.653C23.229,7.264,19.882,5.7,14.489,5.778l.008,1.3c.156-.009.31-.024.469-.024a8.086,8.086,0,0,1,7.517,5.113c2.252.518,6.052,1.819,2.215,4.179,0,0-.135,2.773-.473,5.251,0,0,7.687-4.675,2.823-11.211a2.157,2.157,0,0,0,1.112-.2Zm-6.6,14.947c1.234-1.87,2.674-5.167,2.6-10.349l-1.124.008c0,.119.017.234.017.354a8.084,8.084,0,0,1-5.265,7.572c-.51,2.244-1.811,6.144-4.192,2.275,0,0-2.772-.135-5.253-.474,0,0,4.6,7.566,11.054,2.938a2.16,2.16,0,0,0,.21.806,2.185,2.185,0,1,0,1.952-3.127Z" transform="translate(1100.922 241.008)"/>
  </g>
</svg>
