<svg id="calendar" xmlns="http://www.w3.org/2000/svg" width="15" height="15" viewBox="0 0 15 15">
  <g id="Group_2093" data-name="Group 2093">
    <g id="Group_2092" data-name="Group 2092">
      <circle id="Ellipse_22" data-name="Ellipse 22" cx="0.5" cy="0.5" r="0.5" transform="translate(9 5.368)"/>
      <path id="Path_180" data-name="Path 180" d="M12.656,1.172h-.762V.586a.586.586,0,0,0-1.172,0v.586H8.057V.586a.586.586,0,0,0-1.172,0v.586H4.248V.586a.586.586,0,0,0-1.172,0v.586H2.344A2.346,2.346,0,0,0,0,3.516v9.141A2.346,2.346,0,0,0,2.344,15H6.826a.586.586,0,1,0,0-1.172H2.344a1.173,1.173,0,0,1-1.172-1.172V3.516A1.173,1.173,0,0,1,2.344,2.344h.732V2.93a.586.586,0,0,0,1.172,0V2.344H6.885V2.93a.586.586,0,0,0,1.172,0V2.344h2.666V2.93a.586.586,0,0,0,1.172,0V2.344h.762a1.173,1.173,0,0,1,1.172,1.172v3.34a.586.586,0,1,0,1.172,0V3.516A2.346,2.346,0,0,0,12.656,1.172Z"/>
      <path id="Path_181" data-name="Path 181" d="M273.545,270a3.545,3.545,0,1,0,3.545,3.545A3.549,3.549,0,0,0,273.545,270Zm0,5.918a2.373,2.373,0,1,1,2.373-2.373A2.376,2.376,0,0,1,273.545,275.918Z" transform="translate(-262.09 -262.09)"/>
      <path id="Path_182" data-name="Path 182" d="M372.436,331.2h-.264v-.615a.586.586,0,1,0-1.172,0v1.2a.586.586,0,0,0,.586.586h.85a.586.586,0,1,0,0-1.172Z" transform="translate(-360.131 -320.332)"/>
      <ellipse id="Ellipse_23" data-name="Ellipse 23" cy="1" ry="1" transform="translate(9 5.368)"/>
      <ellipse id="Ellipse_24" data-name="Ellipse 24" cx="1" rx="1" transform="translate(5 9.368)"/>
      <circle id="Ellipse_25" data-name="Ellipse 25" cx="0.5" cy="0.5" r="0.5" transform="translate(3 5.368)"/>
      <ellipse id="Ellipse_26" data-name="Ellipse 26" cx="0.5" rx="0.5" transform="translate(3 9.368)"/>
      <circle id="Ellipse_27" data-name="Ellipse 27" cx="0.5" cy="0.5" r="0.5" transform="translate(3 8.368)"/>
      <circle id="Ellipse_28" data-name="Ellipse 28" cx="0.5" cy="0.5" r="0.5" transform="translate(3 11.368)"/>
      <circle id="Ellipse_29" data-name="Ellipse 29" cx="0.5" cy="0.5" r="0.5" transform="translate(6 5.368)"/>
      <circle id="Ellipse_30" data-name="Ellipse 30" cx="0.5" cy="0.5" r="0.5" transform="translate(6 8.368)"/>
      <circle id="Ellipse_31" data-name="Ellipse 31" cx="0.5" cy="0.5" r="0.5" transform="translate(6 11.368)"/>
    </g>
  </g>
</svg>
