<svg xmlns="http://www.w3.org/2000/svg" width="30.521" height="30.521" viewBox="0 0 30.521 30.521">
  <path id="cross" d="M20.33,8.9l-8.1.483.483-8.1A1.168,1.168,0,0,0,11.448.017,1.559,1.559,0,0,0,10.025,1.44l-.483,8.1-8.1.483A1.559,1.559,0,0,0,.017,11.448a1.191,1.191,0,0,0,.338.925,1.191,1.191,0,0,0,.925.338l8.1-.483L8.9,20.33a1.168,1.168,0,0,0,1.263,1.263,1.559,1.559,0,0,0,1.423-1.423l.483-8.1,8.1-.483a1.559,1.559,0,0,0,1.423-1.423A1.168,1.168,0,0,0,20.33,8.9Z" transform="translate(15.26 30.541) rotate(-135)" fill="#be2623"/>
</svg>
