<svg id="edit" xmlns="http://www.w3.org/2000/svg" width="21.98" height="19.506" viewBox="0 0 21.98 19.506">
  <g id="Group_1816" data-name="Group 1816" transform="translate(0 1.393)">
    <g id="Group_1815" data-name="Group 1815">
      <path id="Path_165" data-name="Path 165" d="M18.055,42.5a.745.745,0,0,0-.785.7V50.16a.745.745,0,0,1-.785.7H2.355a.745.745,0,0,1-.785-.7V36.227a.745.745,0,0,1,.785-.7h9.42a.7.7,0,1,0,0-1.393H2.355A2.234,2.234,0,0,0,0,36.227V50.16a2.234,2.234,0,0,0,2.355,2.09h14.13a2.234,2.234,0,0,0,2.355-2.09V43.194A.745.745,0,0,0,18.055,42.5Z" transform="translate(0 -34.137)"/>
    </g>
  </g>
  <g id="Group_1818" data-name="Group 1818" transform="translate(4.71 0)">
    <g id="Group_1817" data-name="Group 1817" transform="translate(0 0)">
      <path id="Path_166" data-name="Path 166" d="M118.8.785a3.28,3.28,0,0,0-4.25,0l-10.34,9.176a.7.7,0,0,0-.189.272l-1.57,4.18a.682.682,0,0,0,.5.881.877.877,0,0,0,.247.036.89.89,0,0,0,.248-.036l4.71-1.393a.807.807,0,0,0,.307-.169L118.8,4.556A2.46,2.46,0,0,0,118.8.785Z" transform="translate(-102.409 -0.004)"/>
    </g>
  </g>
</svg>
