<svg id="setting" xmlns="http://www.w3.org/2000/svg" width="28" height="19" viewBox="0 0 28 19">
  <rect id="Rectangle_78" data-name="Rectangle 78" width="28" height="19" rx="3" fill="#eae8dc"/>
  <g id="settings_9_" data-name="settings (9)" transform="translate(7.858 3)">
    <path id="Path_178" data-name="Path 178" d="M6.92,13.023H6.1a1.2,1.2,0,0,1-1.2-1.2v-.277a5.258,5.258,0,0,1-.816-.339l-.2.2a1.2,1.2,0,0,1-1.7,0l-.578-.578a1.2,1.2,0,0,1,0-1.7l.2-.2a5.258,5.258,0,0,1-.339-.816H1.2A1.2,1.2,0,0,1,0,6.92V6.1A1.2,1.2,0,0,1,1.2,4.9h.276a5.259,5.259,0,0,1,.339-.816l-.2-.2a1.2,1.2,0,0,1,0-1.7L2.2,1.618a1.2,1.2,0,0,1,1.7,0l.2.2A5.263,5.263,0,0,1,4.9,1.475V1.2A1.2,1.2,0,0,1,6.1,0H6.92a1.2,1.2,0,0,1,1.2,1.2v.277a5.258,5.258,0,0,1,.816.339l.2-.2a1.2,1.2,0,0,1,1.7,0l.578.578a1.2,1.2,0,0,1,0,1.7l-.2.2a5.258,5.258,0,0,1,.339.816h.276a1.2,1.2,0,0,1,1.2,1.2V6.92a1.2,1.2,0,0,1-1.2,1.2h-.276a5.259,5.259,0,0,1-.339.816l.2.2a1.2,1.2,0,0,1,0,1.7l-.578.578a1.2,1.2,0,0,1-1.7,0l-.2-.2a5.263,5.263,0,0,1-.816.339v.277A1.2,1.2,0,0,1,6.92,13.023ZM4.215,10.408a4.5,4.5,0,0,0,1.166.484.382.382,0,0,1,.286.369v.563a.436.436,0,0,0,.436.436H6.92a.436.436,0,0,0,.436-.436v-.563a.382.382,0,0,1,.286-.369,4.5,4.5,0,0,0,1.166-.484.382.382,0,0,1,.464.059l.4.4a.436.436,0,0,0,.616,0l.578-.578a.436.436,0,0,0,0-.616l-.4-.4a.382.382,0,0,1-.059-.464,4.5,4.5,0,0,0,.484-1.166.382.382,0,0,1,.369-.286h.563a.436.436,0,0,0,.436-.436V6.1a.436.436,0,0,0-.436-.436h-.563a.382.382,0,0,1-.369-.286,4.5,4.5,0,0,0-.484-1.166.382.382,0,0,1,.059-.464l.4-.4a.436.436,0,0,0,0-.616l-.578-.578a.436.436,0,0,0-.616,0l-.4.4a.382.382,0,0,1-.464.059,4.5,4.5,0,0,0-1.166-.484.382.382,0,0,1-.286-.369V1.2A.436.436,0,0,0,6.92.763H6.1a.436.436,0,0,0-.436.436v.563a.382.382,0,0,1-.286.369,4.5,4.5,0,0,0-1.166.484.382.382,0,0,1-.464-.059l-.4-.4a.436.436,0,0,0-.616,0l-.578.578a.436.436,0,0,0,0,.616l.4.4a.382.382,0,0,1,.059.464,4.5,4.5,0,0,0-.484,1.166.382.382,0,0,1-.369.286H1.2A.436.436,0,0,0,.763,6.1V6.92a.436.436,0,0,0,.436.436h.563a.382.382,0,0,1,.369.286,4.5,4.5,0,0,0,.484,1.166.382.382,0,0,1-.059.464l-.4.4a.436.436,0,0,0,0,.616l.578.578a.436.436,0,0,0,.616,0l.4-.4a.383.383,0,0,1,.464-.059Z" transform="translate(0 0)"/>
    <path id="Path_179" data-name="Path 179" d="M147.434,150.267a2.834,2.834,0,1,1,2.834-2.834A2.837,2.837,0,0,1,147.434,150.267Zm0-4.9a2.071,2.071,0,1,0,2.071,2.071A2.073,2.073,0,0,0,147.434,145.363Z" transform="translate(-140.922 -140.922)"/>
  </g>
</svg>
